<?xml version="1.0" encoding="UTF-8" standalone="no"?>
<!-- Created with Inkscape (http://www.inkscape.org/) -->

<svg
   xmlns:dc="http://purl.org/dc/elements/1.1/"
   xmlns:cc="http://creativecommons.org/ns#"
   xmlns:rdf="http://www.w3.org/1999/02/22-rdf-syntax-ns#"
   xmlns:svg="http://www.w3.org/2000/svg"
   xmlns="http://www.w3.org/2000/svg"
   xmlns:sodipodi="http://sodipodi.sourceforge.net/DTD/sodipodi-0.dtd"
   xmlns:inkscape="http://www.inkscape.org/namespaces/inkscape"
   width="210mm"
   height="297mm"
   viewBox="0 0 744.09448819 1052.3622047"
   id="svg2"
   version="1.1"
   inkscape:version="0.91 r13725">
  <defs
     id="defs4" />
  <sodipodi:namedview
     id="base"
     pagecolor="#ffffff"
     bordercolor="#666666"
     borderopacity="1.0"
     inkscape:pageopacity="0.0"
     inkscape:pageshadow="2"
     inkscape:zoom="0.35"
     inkscape:cx="-283.57143"
     inkscape:cy="517.14286"
     inkscape:document-units="px"
     inkscape:current-layer="layer1"
     showgrid="false"
     inkscape:window-width="1600"
     inkscape:window-height="838"
     inkscape:window-x="-8"
     inkscape:window-y="-8"
     inkscape:window-maximized="1" />
  <metadata
     id="metadata7">
    <rdf:RDF>
      <cc:Work
         rdf:about="">
        <dc:format>image/svg+xml</dc:format>
        <dc:type
           rdf:resource="http://purl.org/dc/dcmitype/StillImage" />
        <dc:title></dc:title>
      </cc:Work>
    </rdf:RDF>
  </metadata>
  <g
     inkscape:label="Layer 1"
     inkscape:groupmode="layer"
     id="layer1">
    <g
       id="g4159"
       transform="matrix(1.076387,0,0,-1.0633695,54.293711,900.32644)">
      <path
         inkscape:connector-curvature="0"
         id="path4161"
         style="fill:#ffffff;fill-opacity:1;fill-rule:nonzero;stroke:none"
         d="M 0,0 595,0 595,842 0,842 0,0 Z" />
    </g>
    <g
       id="g4530"
       transform="matrix(1,0,0,1.121359,0,-170.61994)">
      <path
         d="M 225.88823,478.37145 C 166.55132,442.35167 132.23704,300.39304 168.69777,241.77373"
         style="fill:none;stroke:#c0c0c0;stroke-width:0.85588676;stroke-linecap:butt;stroke-linejoin:miter;stroke-miterlimit:10;stroke-dasharray:none;stroke-opacity:1"
         id="path4167"
         inkscape:connector-curvature="0" />
      <path
         d="M 98.362469,370.59789 C 168.80769,411.72171 212.03176,577.79451 170.40451,647.38207"
         style="fill:none;stroke:#c0c0c0;stroke-width:0.85588676;stroke-linecap:butt;stroke-linejoin:miter;stroke-miterlimit:10;stroke-dasharray:none;stroke-opacity:1"
         id="path4169"
         inkscape:connector-curvature="0" />
      <path
         d="M 577.31593,666.38077 C 534.78613,648.83955 497.63114,559.50455 515.38708,517.4891"
         style="fill:none;stroke:#aa3dff;stroke-width:0.85588676;stroke-linecap:butt;stroke-linejoin:miter;stroke-miterlimit:10;stroke-dasharray:none;stroke-opacity:1"
         id="path4171"
         inkscape:connector-curvature="0" />
      <path
         d="m 225.88823,478.37145 c 23.11917,44.76467 -10.17105,146.17104 -55.48372,169.01062"
         style="fill:none;stroke:#c0c0c0;stroke-width:0.85588676;stroke-linecap:butt;stroke-linejoin:miter;stroke-miterlimit:10;stroke-dasharray:none;stroke-opacity:1"
         id="path4173"
         inkscape:connector-curvature="0" />
      <path
         d="M 305.3821,320.11761 C 387.34062,318.1 513.34477,436.52175 515.38708,517.4891"
         style="fill:none;stroke:#aa3dff;stroke-width:0.57504892;stroke-linecap:butt;stroke-linejoin:miter;stroke-miterlimit:10;stroke-dasharray:none;stroke-opacity:1"
         id="path4175"
         inkscape:connector-curvature="0" />
      <path
         d="M 375.98932,455.73763 C 291.21321,453.90047 166.84059,325.52458 168.69777,241.77373"
         style="fill:none;stroke:#85df83;stroke-width:0.85588676;stroke-linecap:butt;stroke-linejoin:miter;stroke-miterlimit:10;stroke-dasharray:none;stroke-opacity:1"
         id="path4177"
         inkscape:connector-curvature="0" />
      <path
         d="M 375.98932,455.73763 C 373.6693,534.68737 250.32073,649.67403 170.40451,647.38207"
         style="fill:none;stroke:#85df83;stroke-width:0.85588676;stroke-linecap:butt;stroke-linejoin:miter;stroke-miterlimit:10;stroke-dasharray:none;stroke-opacity:1"
         id="path4179"
         inkscape:connector-curvature="0" />
      <path
         d="m 375.98932,455.73763 c 71.22049,41.83256 114.53712,210.12873 72.18668,280.49362"
         style="fill:none;stroke:#4bff47;stroke-width:0.85588676;stroke-linecap:butt;stroke-linejoin:miter;stroke-miterlimit:10;stroke-dasharray:none;stroke-opacity:1"
         id="path4181"
         inkscape:connector-curvature="0" />
      <path
         d="m 79.669259,526.10824 c 42.697581,6.32718 97.139891,79.09262 90.735251,121.27383"
         style="fill:none;stroke:#c0c0c0;stroke-width:0.85588676;stroke-linecap:butt;stroke-linejoin:miter;stroke-miterlimit:10;stroke-dasharray:none;stroke-opacity:1"
         id="path4183"
         inkscape:connector-curvature="0" />
      <path
         d="M 655.5659,388.36201 C 653.67402,441.88299 569.56325,519.36382 515.38708,517.4891"
         style="fill:none;stroke:#aa3dff;stroke-width:0.85588676;stroke-linecap:butt;stroke-linejoin:miter;stroke-miterlimit:10;stroke-dasharray:none;stroke-opacity:1"
         id="path4185"
         inkscape:connector-curvature="0" />
      <path
         d="m 287.08231,740.70657 c -13.49198,-41.22099 28.8469,-123.03996 70.5725,-136.37448"
         style="fill:none;stroke:#4bff47;stroke-width:0.85588676;stroke-linecap:butt;stroke-linejoin:miter;stroke-miterlimit:10;stroke-dasharray:none;stroke-opacity:1"
         id="path4187"
         inkscape:connector-curvature="0" />
      <path
         d="m 480.6736,343.31156 c 4.35076,-42.79278 75.84317,-100.5376 119.15981,-96.23946"
         style="fill:none;stroke:#f64cff;stroke-width:0.85588676;stroke-linecap:butt;stroke-linejoin:miter;stroke-miterlimit:10;stroke-dasharray:none;stroke-opacity:1"
         id="path4189"
         inkscape:connector-curvature="0" />
      <path
         d="M 669.01159,536.63639 C 634.40804,563.16254 542.23796,551.67417 515.38708,517.4891"
         style="fill:none;stroke:#aa3dff;stroke-width:0.85588676;stroke-linecap:butt;stroke-linejoin:miter;stroke-miterlimit:10;stroke-dasharray:none;stroke-opacity:1"
         id="path4191"
         inkscape:connector-curvature="0" />
      <path
         d="M 480.6736,343.31156 C 450.77951,319.22598 442.51192,238.79018 466.89814,209.25762"
         style="fill:none;stroke:#f64cff;stroke-width:0.85588676;stroke-linecap:butt;stroke-linejoin:miter;stroke-miterlimit:10;stroke-dasharray:none;stroke-opacity:1"
         id="path4193"
         inkscape:connector-curvature="0" />
      <path
         d="m 375.98932,455.73763 c 26.41695,33.33916 15.41278,122.5027 -18.33451,148.59446"
         style="fill:none;stroke:#4bff47;stroke-width:0.85588676;stroke-linecap:butt;stroke-linejoin:miter;stroke-miterlimit:10;stroke-dasharray:none;stroke-opacity:1"
         id="path4195"
         inkscape:connector-curvature="0" />
      <path
         d="M 480.6736,343.31156 C 410.30938,341.3111 307.80047,234.02908 309.83121,164.5101"
         style="fill:none;stroke:#f64cff;stroke-width:0.85588676;stroke-linecap:butt;stroke-linejoin:miter;stroke-miterlimit:10;stroke-dasharray:none;stroke-opacity:1"
         id="path4197"
         inkscape:connector-curvature="0" />
      <path
         d="m 237.45939,478.37145 c 0,-6.31003 -5.1781,-11.43122 -11.57116,-11.43122 -6.38729,0 -11.57117,5.12119 -11.57117,11.43122 0,6.31575 5.18388,11.43123 11.57117,11.43123 6.39306,0 11.57116,-5.11548 11.57116,-11.43123"
         style="fill:#c0c0c0;fill-opacity:1;fill-rule:nonzero;stroke:#000000;stroke-width:0.57504892;stroke-linecap:butt;stroke-linejoin:miter;stroke-miterlimit:10;stroke-dasharray:none;stroke-opacity:1"
         id="path4199"
         inkscape:connector-curvature="0" />
      <path
         d="m 180.26893,241.77373 c 0,-6.31575 -5.1781,-11.43122 -11.57116,-11.43122 -6.38728,0 -11.57116,5.11547 -11.57116,11.43122 0,6.31575 5.18388,11.43122 11.57116,11.43122 6.39306,0 11.57116,-5.11547 11.57116,-11.43122"
         style="fill:#c0c0c0;fill-opacity:1;fill-rule:nonzero;stroke:#000000;stroke-width:0.57504892;stroke-linecap:butt;stroke-linejoin:miter;stroke-miterlimit:10;stroke-dasharray:none;stroke-opacity:1"
         id="path4201"
         inkscape:connector-curvature="0" />
      <path
         d="m 104.14805,370.59789 c 0,-3.15502 -2.58616,-5.71561 -5.785581,-5.71561 -3.193641,0 -5.78558,2.56059 -5.78558,5.71561 0,3.16073 2.591939,5.71561 5.78558,5.71561 3.199421,0 5.785581,-2.55488 5.785581,-5.71561"
         style="fill:#c0c0c0;fill-opacity:1;fill-rule:nonzero;stroke:#000000;stroke-width:0.57504892;stroke-linecap:butt;stroke-linejoin:miter;stroke-miterlimit:10;stroke-dasharray:none;stroke-opacity:1"
         id="path4203"
         inkscape:connector-curvature="0" />
      <path
         d="m 193.54683,647.38207 c 0,-12.62578 -10.36197,-22.86244 -23.14232,-22.86244 -12.78034,0 -23.14232,10.23666 -23.14232,22.86244 0,12.62579 10.36198,22.86245 23.14232,22.86245 12.78035,0 23.14232,-10.23666 23.14232,-22.86245"
         style="fill:#c0c0c0;fill-opacity:1;fill-rule:nonzero;stroke:#000000;stroke-width:0.57504892;stroke-linecap:butt;stroke-linejoin:miter;stroke-miterlimit:10;stroke-dasharray:none;stroke-opacity:1"
         id="path4205"
         inkscape:connector-curvature="0" />
      <path
         d="m 583.10151,666.38077 c 0,-3.15502 -2.59194,-5.71562 -5.78558,-5.71562 -3.19364,0 -5.78558,2.5606 -5.78558,5.71562 0,3.16073 2.59194,5.71561 5.78558,5.71561 3.19364,0 5.78558,-2.55488 5.78558,-5.71561"
         style="fill:#aa3dff;fill-opacity:1;fill-rule:nonzero;stroke:#000000;stroke-width:0.57504892;stroke-linecap:butt;stroke-linejoin:miter;stroke-miterlimit:10;stroke-dasharray:none;stroke-opacity:1"
         id="path4207"
         inkscape:connector-curvature="0" />
      <path
         d="m 538.5294,517.4891 c 0,-12.62579 -10.36197,-22.86245 -23.14232,-22.86245 -12.78034,0 -23.14232,10.23666 -23.14232,22.86245 0,12.62578 10.36198,22.86244 23.14232,22.86244 12.78035,0 23.14232,-10.23666 23.14232,-22.86244"
         style="fill:#aa3dff;fill-opacity:1;fill-rule:nonzero;stroke:#000000;stroke-width:0.57504892;stroke-linecap:butt;stroke-linejoin:miter;stroke-miterlimit:10;stroke-dasharray:none;stroke-opacity:1"
         id="path4209"
         inkscape:connector-curvature="0" />
      <path
         d="m 311.16768,320.11761 c 0,-3.15501 -2.59194,-5.71561 -5.78558,-5.71561 -3.19364,0 -5.78558,2.5606 -5.78558,5.71561 0,3.16074 2.59194,5.71561 5.78558,5.71561 3.19364,0 5.78558,-2.55487 5.78558,-5.71561"
         style="fill:#aa3dff;fill-opacity:1;fill-rule:nonzero;stroke:#000000;stroke-width:0.57504892;stroke-linecap:butt;stroke-linejoin:miter;stroke-miterlimit:10;stroke-dasharray:none;stroke-opacity:1"
         id="path4211"
         inkscape:connector-curvature="0" />
      <path
         d="m 399.13164,455.73763 c 0,-12.62578 -10.36198,-22.86244 -23.14232,-22.86244 -12.78614,0 -23.14233,10.23666 -23.14233,22.86244 0,12.62579 10.35619,22.86245 23.14233,22.86245 12.78034,0 23.14232,-10.23666 23.14232,-22.86245"
         style="fill:#4bff47;fill-opacity:1;fill-rule:nonzero;stroke:#000000;stroke-width:0.57504892;stroke-linecap:butt;stroke-linejoin:miter;stroke-miterlimit:10;stroke-dasharray:none;stroke-opacity:1"
         id="path4213"
         inkscape:connector-curvature="0" />
      <path
         d="m 453.96158,736.23125 c 0,-3.16073 -2.59194,-5.71561 -5.78558,-5.71561 -3.19364,0 -5.78558,2.55488 -5.78558,5.71561 0,3.15502 2.59194,5.71561 5.78558,5.71561 3.19364,0 5.78558,-2.56059 5.78558,-5.71561"
         style="fill:#4bff47;fill-opacity:1;fill-rule:nonzero;stroke:#000000;stroke-width:0.57504892;stroke-linecap:butt;stroke-linejoin:miter;stroke-miterlimit:10;stroke-dasharray:none;stroke-opacity:1"
         id="path4215"
         inkscape:connector-curvature="0" />
      <path
         d="m 85.454839,526.10824 c 0,-3.16074 -2.591939,-5.71561 -5.78558,-5.71561 -3.19364,0 -5.78558,2.55487 -5.78558,5.71561 0,3.15502 2.59194,5.71561 5.78558,5.71561 3.193641,0 5.78558,-2.56059 5.78558,-5.71561"
         style="fill:#c0c0c0;fill-opacity:1;fill-rule:nonzero;stroke:#000000;stroke-width:0.57504892;stroke-linecap:butt;stroke-linejoin:miter;stroke-miterlimit:10;stroke-dasharray:none;stroke-opacity:1"
         id="path4217"
         inkscape:connector-curvature="0" />
      <path
         d="m 661.35148,388.36201 c 0,-3.15502 -2.59194,-5.71561 -5.78558,-5.71561 -3.19364,0 -5.78558,2.56059 -5.78558,5.71561 0,3.15502 2.59194,5.71561 5.78558,5.71561 3.19364,0 5.78558,-2.56059 5.78558,-5.71561"
         style="fill:#aa3dff;fill-opacity:1;fill-rule:nonzero;stroke:#000000;stroke-width:0.57504892;stroke-linecap:butt;stroke-linejoin:miter;stroke-miterlimit:10;stroke-dasharray:none;stroke-opacity:1"
         id="path4219"
         inkscape:connector-curvature="0" />
      <path
         d="m 292.86789,740.70657 c 0,-3.16073 -2.59194,-5.71561 -5.78558,-5.71561 -3.19364,0 -5.78558,2.55488 -5.78558,5.71561 0,3.15502 2.59194,5.71561 5.78558,5.71561 3.19364,0 5.78558,-2.56059 5.78558,-5.71561"
         style="fill:#4bff47;fill-opacity:1;fill-rule:nonzero;stroke:#000000;stroke-width:0.57504892;stroke-linecap:butt;stroke-linejoin:miter;stroke-miterlimit:10;stroke-dasharray:none;stroke-opacity:1"
         id="path4221"
         inkscape:connector-curvature="0" />
      <path
         d="m 369.22597,604.33209 c 0,-6.31003 -5.18388,-11.43122 -11.57116,-11.43122 -6.39306,0 -11.57116,5.12119 -11.57116,11.43122 0,6.31575 5.1781,11.43122 11.57116,11.43122 6.38728,0 11.57116,-5.11547 11.57116,-11.43122"
         style="fill:#4bff47;fill-opacity:1;fill-rule:nonzero;stroke:#000000;stroke-width:0.57504892;stroke-linecap:butt;stroke-linejoin:miter;stroke-miterlimit:10;stroke-dasharray:none;stroke-opacity:1"
         id="path4223"
         inkscape:connector-curvature="0" />
      <path
         d="m 498.03034,343.31156 c 0,-9.47076 -7.77003,-17.14683 -17.35674,-17.14683 -9.5867,0 -17.35674,7.67607 -17.35674,17.14683 0,9.47077 7.77004,17.14684 17.35674,17.14684 9.58671,0 17.35674,-7.67607 17.35674,-17.14684"
         style="fill:#f64cff;fill-opacity:1;fill-rule:nonzero;stroke:#000000;stroke-width:0.57504892;stroke-linecap:butt;stroke-linejoin:miter;stroke-miterlimit:10;stroke-dasharray:none;stroke-opacity:1"
         id="path4225"
         inkscape:connector-curvature="0" />
      <path
         d="m 605.61899,247.0721 c 0,-3.16073 -2.59194,-5.71561 -5.78558,-5.71561 -3.19364,0 -5.78558,2.55488 -5.78558,5.71561 0,3.15502 2.59194,5.71562 5.78558,5.71562 3.19364,0 5.78558,-2.5606 5.78558,-5.71562"
         style="fill:#f64cff;fill-opacity:1;fill-rule:nonzero;stroke:#000000;stroke-width:0.57504892;stroke-linecap:butt;stroke-linejoin:miter;stroke-miterlimit:10;stroke-dasharray:none;stroke-opacity:1"
         id="path4227"
         inkscape:connector-curvature="0" />
      <path
         d="m 674.79717,536.63639 c 0,-3.15501 -2.59194,-5.71561 -5.78558,-5.71561 -3.19943,0 -5.78558,2.5606 -5.78558,5.71561 0,3.15502 2.58615,5.71561 5.78558,5.71561 3.19364,0 5.78558,-2.56059 5.78558,-5.71561"
         style="fill:#aa3dff;fill-opacity:1;fill-rule:nonzero;stroke:#000000;stroke-width:0.57504892;stroke-linecap:butt;stroke-linejoin:miter;stroke-miterlimit:10;stroke-dasharray:none;stroke-opacity:1"
         id="path4229"
         inkscape:connector-curvature="0" />
      <path
         d="m 472.68372,209.25762 c 0,-3.15502 -2.59194,-5.71561 -5.78558,-5.71561 -3.19364,0 -5.78558,2.56059 -5.78558,5.71561 0,3.16073 2.59194,5.71561 5.78558,5.71561 3.19364,0 5.78558,-2.55488 5.78558,-5.71561"
         style="fill:#f64cff;fill-opacity:1;fill-rule:nonzero;stroke:#000000;stroke-width:0.57504892;stroke-linecap:butt;stroke-linejoin:miter;stroke-miterlimit:10;stroke-dasharray:none;stroke-opacity:1"
         id="path4231"
         inkscape:connector-curvature="0" />
      <path
         d="m 315.61679,164.5101 c 0,-3.15502 -2.59194,-5.71561 -5.78558,-5.71561 -3.19943,0 -5.78558,2.56059 -5.78558,5.71561 0,3.16073 2.58615,5.71561 5.78558,5.71561 3.19364,0 5.78558,-2.55488 5.78558,-5.71561"
         style="fill:#f64cff;fill-opacity:1;fill-rule:nonzero;stroke:#000000;stroke-width:0.57504892;stroke-linecap:butt;stroke-linejoin:miter;stroke-miterlimit:10;stroke-dasharray:none;stroke-opacity:1"
         id="path4233"
         inkscape:connector-curvature="0" />
      <text
         y="486.65579"
         x="144.02856"
         transform="scale(1.0061022,0.99393476)"
         style="font-variant:normal;font-weight:normal;font-size:20.70176125px;font-family:Arial;-inkscape-font-specification:ArialMT;writing-mode:lr-tb;fill:#000000;fill-opacity:1;fill-rule:nonzero;stroke:none"
         id="text4235">
        <tspan
           x="144.02856 158.97523 170.48541 177.3791 188.88928 193.48506 203.83595 215.34613 221.08052 234.86789 246.37807 257.88824 275.13281 280.86722 287.76089 293.49527"
           y="486.65579"
           sodipodi:role="line"
           id="tspan4237">Carolyn Baum - 2</tspan>
      </text>
      <text
         y="250.66148"
         x="-2.1603737"
         transform="scale(1.0061022,0.99393476)"
         style="font-variant:normal;font-weight:normal;font-size:20.70176125px;font-family:Arial;-inkscape-font-specification:ArialMT;writing-mode:lr-tb;fill:#000000;fill-opacity:1;fill-rule:nonzero;stroke:none"
         id="text4239">
        <tspan
           x="-2.1603737 12.786298 24.296476 41.541046 53.051224 64.561401 70.295792 74.891586 86.401756 92.136147 108.22141 115.1151 120.84949 134.63686 139.23265 149.58354 161.0937 172.60388 177.19968 194.44424 205.95442 212.84811 216.78145 227.13232 232.86673 247.8134 252.40918 262.76004 274.27023 285.78043 296.13129 307.64148 313.37585 320.26956 326.00394"
           y="250.66148"
           sodipodi:role="line"
           id="tspan4241">Dementia Or Alzheimer's Disease - 2</tspan>
      </text>
      <text
         y="377.80481"
         x="36.816441"
         transform="scale(1.0061022,0.99393476)"
         style="font-variant:normal;font-weight:normal;font-size:13.80117416px;font-family:Arial;-inkscape-font-specification:ArialMT;writing-mode:lr-tb;fill:#000000;fill-opacity:1;fill-rule:nonzero;stroke:none"
         id="text4243">
        <tspan
           x="36.816441 46.780888 54.454342 61.354931 69.028381 76.701836 84.37529 92.048737 95.871666 105.06325 111.96383 119.63729 127.31074 134.98419 138.80711 142.63004 147.22583 151.04875"
           y="377.80481"
           sodipodi:role="line"
           id="tspan4245">Roseann Schaaf - 1</tspan>
      </text>
      <text
         y="663.68463"
         x="101.36568"
         transform="scale(1.0061022,0.99393476)"
         style="font-variant:normal;font-weight:normal;font-size:34.5029335px;font-family:Arial;-inkscape-font-specification:ArialMT;writing-mode:lr-tb;fill:#000000;fill-opacity:1;fill-rule:nonzero;stroke:none"
         id="text4247">
        <tspan
           x="101.36568 128.17445 137.73178 156.91541 176.09904 187.58852 197.14583 208.6353 218.19263"
           y="663.68463"
           sodipodi:role="line"
           id="tspan4249">Other - 4</tspan>
      </text>
      <text
         y="675.32935"
         x="512.08862"
         transform="scale(1.0061022,0.99393476)"
         style="font-variant:normal;font-weight:normal;font-size:13.80117416px;font-family:Arial;-inkscape-font-specification:ArialMT;writing-mode:lr-tb;fill:#000000;fill-opacity:1;fill-rule:nonzero;stroke:none"
         id="text4251">
        <tspan
           x="512.08862 521.28021 528.95367 536.62708 544.30054 548.12347 558.08795 565.76135 573.43481 581.10828 588.78174 593.37756 600.27814 607.9516 615.625 619.44794 624.04376 627.86664"
           y="675.32935"
           sodipodi:role="line"
           id="tspan4253">Anne Henderson - 1</tspan>
      </text>
      <text
         y="529.79022"
         x="284.23123"
         transform="scale(1.0061022,0.99393476)"
         style="font-variant:normal;font-weight:normal;font-size:34.5029335px;font-family:Arial;-inkscape-font-specification:ArialMT;writing-mode:lr-tb;fill:#000000;fill-opacity:1;fill-rule:nonzero;stroke:none"
         id="text4255">
        <tspan
           x="284.23123 307.21021 335.95114 355.13477 374.31842 383.8757 403.05936 412.61667 420.27631 439.45996 458.64359 475.89505 485.45236 512.26117 523.75061 533.30792 552.49158 560.15125 588.89215 608.07574 617.63312 636.81677 656.00037 673.25183 690.5033 700.06061 711.55005 721.10736"
           y="529.79022"
           sodipodi:role="line"
           id="tspan4257">Amputations Or Limb Loss - 5</tspan>
      </text>
      <text
         y="325.57886"
         x="256.00784"
         transform="scale(1.0061022,0.99393476)"
         style="font-variant:normal;font-weight:normal;font-size:13.80117416px;font-family:Arial;-inkscape-font-specification:ArialMT;writing-mode:lr-tb;fill:#000000;fill-opacity:1;fill-rule:nonzero;stroke:none"
         id="text4259">
        <tspan
           x="256.00784 267.50421 275.17767 279.77347 286.67404 290.49698 298.17041 305.84387 315.80832 318.87219 326.54562 331.14142 334.96436 339.56015 343.38306"
           y="325.57886"
           sodipodi:role="line"
           id="tspan4261">Mary Lawlor - 2</tspan>
      </text>
      <text
         y="467.23065"
         x="251.03368"
         transform="scale(1.0061022,0.99393476)"
         style="font-variant:normal;font-weight:normal;font-size:34.5029335px;font-family:Arial;-inkscape-font-specification:ArialMT;writing-mode:lr-tb;fill:#000000;fill-opacity:1;fill-rule:nonzero;stroke:none"
         id="text4263">
        <tspan
           x="251.03368 268.28513 287.46878 306.6524 325.83603 335.39334 360.30447 379.4881 398.67172 417.85538 429.34482 446.59631 456.15363 467.6431 477.20041"
           y="467.23065"
           sodipodi:role="line"
           id="tspan4265">Joan Rogers - 4</tspan>
      </text>
      <text
         y="745.60034"
         x="393.34103"
         transform="scale(1.0061022,0.99393476)"
         style="font-variant:normal;font-weight:normal;font-size:13.80117416px;font-family:Arial;-inkscape-font-specification:ArialMT;writing-mode:lr-tb;fill:#000000;fill-opacity:1;fill-rule:nonzero;stroke:none"
         id="text4267">
        <tspan
           x="393.34103 404.8374 412.51086 420.1843 424.00723 431.68069 434.74454 438.56747 442.39041 445.45425 448.51813 456.19156 463.86502 470.76563 477.6662 481.48911 486.0849 489.90784"
           y="745.60034"
           sodipodi:role="line"
           id="tspan4269">Mental Illness - 1</tspan>
      </text>
      <text
         y="534.19513"
         x="23.222286"
         transform="scale(1.0061022,0.99393476)"
         style="font-variant:normal;font-weight:normal;font-size:13.80117416px;font-family:Arial;-inkscape-font-specification:ArialMT;writing-mode:lr-tb;fill:#000000;fill-opacity:1;fill-rule:nonzero;stroke:none"
         id="text4271">
        <tspan
           x="23.222286 34.718662 37.782524 44.683113 52.356564 60.030018 67.703468 70.767334 74.590256 86.086632 92.987221 99.88781 107.56126 115.23471 119.05764 123.65343 127.47636"
           y="534.19513"
           sodipodi:role="line"
           id="tspan4273">Michael Mccue - 1</tspan>
      </text>
      <text
         y="394.30869"
         x="593.7226"
         transform="scale(1.0061022,0.99393476)"
         style="font-variant:normal;font-weight:normal;font-size:13.80117416px;font-family:Arial;-inkscape-font-specification:ArialMT;writing-mode:lr-tb;fill:#000000;fill-opacity:1;fill-rule:nonzero;stroke:none"
         id="text4275">
        <tspan
           x="593.7226 604.44611 612.11951 616.71533 623.61591 627.43884 636.63043 639.69427 647.36774 650.43158 658.10504 665.7785 669.60144 677.2749 684.9483 689.54413 693.36707 697.96283 701.78577"
           y="394.30869"
           sodipodi:role="line"
           id="tspan4277">Gary Kielhofner - 1</tspan>
      </text>
      <text
         y="750.09723"
         x="238.96338"
         transform="scale(1.0061022,0.99393476)"
         style="font-variant:normal;font-weight:normal;font-size:13.80117416px;font-family:Arial;-inkscape-font-specification:ArialMT;writing-mode:lr-tb;fill:#000000;fill-opacity:1;fill-rule:nonzero;stroke:none"
         id="text4279">
        <tspan
           x="238.96338 245.86397 253.53743 261.21088 268.88434 272.70724 276.53018 285.72177 293.3952 301.06866 304.13254 311.80597 315.62891 320.2247 324.04764"
           y="750.09723"
           sodipodi:role="line"
           id="tspan4281">Janet Poole - 1</tspan>
      </text>
      <text
         y="615.34027"
         x="186.47293"
         transform="scale(1.0061022,0.99393476)"
         style="font-variant:normal;font-weight:normal;font-size:20.70176125px;font-family:Arial;-inkscape-font-specification:ArialMT;writing-mode:lr-tb;fill:#000000;fill-opacity:1;fill-rule:nonzero;stroke:none"
         id="text4283">
        <tspan
           x="186.47293 200.2603 207.15399 212.88837 224.39856 231.29224 235.88803 241.62242 246.21822 256.56909 262.30347 276.09085 287.60104 299.11121 304.84561 319.79227 331.30246 342.81262 354.32281 371.56738 383.07755 388.81195 393.40771 403.75861 409.49301 424.43967 429.03546 439.38635 450.89651 462.40671 472.75757 484.26776 494.61862 500.353 507.2467 512.98108"
           y="615.34027"
           sodipodi:role="line"
           id="tspan4285">Arthritis And Rheumatic Diseases - 2</tspan>
      </text>
      <text
         y="352.55438"
         x="402.63956"
         transform="scale(1.0061022,0.99393476)"
         style="font-variant:normal;font-weight:normal;font-size:27.60234833px;font-family:Arial;-inkscape-font-specification:ArialMT;writing-mode:lr-tb;fill:#000000;fill-opacity:1;fill-rule:nonzero;stroke:none"
         id="text4287">
        <tspan
           x="402.63956 421.02274 428.66858 436.31442 451.66135 467.00824 482.35513 497.70206 513.04895 520.69482 529.88641 537.53223"
           y="352.55438"
           sodipodi:role="line"
           id="tspan4289">S. Logan - 3</tspan>
      </text>
      <text
         y="252.08185"
         x="522.61774"
         transform="scale(1.0061022,0.99393476)"
         style="font-variant:normal;font-weight:normal;font-size:13.80117416px;font-family:Arial;-inkscape-font-specification:ArialMT;writing-mode:lr-tb;fill:#000000;fill-opacity:1;fill-rule:nonzero;stroke:none"
         id="text4291">
        <tspan
           x="522.61774 535.63226 543.30573 547.90149 554.80212 559.39789 563.99371 571.66711 574.73102 582.40448 586.22736 593.90082 601.57428 605.39722 609.22015 616.89362 619.95746 627.63092 632.22668 635.29053 642.96399 649.86456 653.6875 658.28333 662.1062"
           y="252.08185"
           sodipodi:role="line"
           id="tspan4293">Work-related Injuries - 1</tspan>
      </text>
      <text
         y="543.41888"
         x="615.13165"
         transform="scale(1.0061022,0.99393476)"
         style="font-variant:normal;font-weight:normal;font-size:13.80117416px;font-family:Arial;-inkscape-font-specification:ArialMT;writing-mode:lr-tb;fill:#000000;fill-opacity:1;fill-rule:nonzero;stroke:none"
         id="text4295">
        <tspan
           x="615.13165 623.55035 628.14612 635.81958 643.49304 650.39362 654.21655 661.89001 669.56348 673.38641 680.28699 687.18756 694.86102 698.68396 703.27972 707.10266"
           y="543.41888"
           sodipodi:role="line"
           id="tspan4297">Trudy Latzko - 1</tspan>
      </text>
      <text
         y="214.11137"
         x="352.5528"
         transform="scale(1.0061022,0.99393476)"
         style="font-variant:normal;font-weight:normal;font-size:13.80117416px;font-family:Arial;-inkscape-font-specification:ArialMT;writing-mode:lr-tb;fill:#000000;fill-opacity:1;fill-rule:nonzero;stroke:none"
         id="text4299">
        <tspan
           x="352.5528 362.51724 370.1907 377.86417 385.5376 389.36053 400.08405 404.67984 408.50278 418.46722 426.14066 433.81412 441.48758 446.08334 449.90628 459.09787 465.99844 469.82138 474.41718 482.09064 493.58701 496.65085 500.47379 507.37436 511.1973 515.02026 522.69366 525.75757 533.43097 538.02679 541.09064 548.7641 555.66467 559.48761 564.08337 567.90631"
           y="214.11137"
           sodipodi:role="line"
           id="tspan4301">Hand Or Upper Extremity Injuries - 1</tspan>
      </text>
      <text
         y="169.02177"
         x="224.77118"
         transform="scale(1.0061022,0.99393476)"
         style="font-variant:normal;font-weight:normal;font-size:13.80117416px;font-family:Arial;-inkscape-font-specification:ArialMT;writing-mode:lr-tb;fill:#000000;fill-opacity:1;fill-rule:nonzero;stroke:none"
         id="text4303">
        <tspan
           x="224.77118 236.26756 243.94101 250.8416 257.74219 265.41565 268.47949 276.15295 283.05353 289.95413 297.62756 300.69144 308.3649 312.18781 319.86127 322.92514 326.74805 330.57098 338.24445 341.30829 348.98175 353.57755 356.64139 364.31485 371.21542 375.03836 379.63416 383.45706"
           y="169.02177"
           sodipodi:role="line"
           id="tspan4305">Musculoskeletal Injuries - 1</tspan>
      </text>
    </g>
  </g>
</svg>
